<?xml version="1.0" standalone="no"?>
<!DOCTYPE svg PUBLIC "-//W3C//DTD SVG 20010904//EN"
 "http://www.w3.org/TR/2001/REC-SVG-20010904/DTD/svg10.dtd">
<svg version="1.0" xmlns="http://www.w3.org/2000/svg"
 width="920.000000pt" height="752.000000pt" viewBox="0 0 920.000000 752.000000"
 preserveAspectRatio="xMidYMid meet">
<metadata>
Created by potrace 1.16, written by Peter Selinger 2001-2019
</metadata>
<g transform="translate(0.000000,752.000000) scale(0.100000,-0.100000)"
fill="#000000" stroke="none">
<path d="M3480 6795 c-236 -47 -439 -196 -540 -395 -47 -93 -53 -126 -59 -325
l-6 -190 -73 -3 c-62 -2 -73 0 -78 15 -27 78 -61 132 -121 192 -79 79 -147
115 -257 137 -228 47 -470 -88 -551 -307 l-17 -47 -86 -17 c-335 -66 -648
-263 -841 -527 -105 -145 -187 -341 -216 -518 -22 -139 -23 -2344 0 -2493 72
-477 440 -877 940 -1022 189 -55 199 -55 1318 -55 l1034 0 65 -77 c276 -328
661 -587 1081 -729 116 -39 324 -87 457 -106 142 -19 507 -17 650 5 424 65
805 227 1144 485 135 103 342 312 446 450 77 102 92 116 165 159 344 200 569
517 630 888 14 89 16 228 13 1295 l-4 1195 -26 95 c-66 239 -173 425 -339 587
-191 186 -387 293 -659 361 l-105 26 -647 3 -648 4 0 137 c0 279 -46 408 -200
562 -82 81 -149 125 -260 170 -147 60 -140 60 -1189 59 -740 -1 -971 -4 -1021
-14z m2041 -405 c79 -25 154 -80 194 -144 l30 -49 3 -354 3 -353 727 0 c756 0
893 -6 1027 -41 288 -75 531 -287 624 -545 47 -128 52 -182 49 -485 l-3 -277
-74 44 c-92 54 -213 98 -325 119 l-86 16 -112 116 c-389 398 -881 645 -1433
718 -144 19 -429 22 -573 6 -79 -9 -126 -9 -200 0 -121 14 -377 14 -497 -1
-365 -45 -719 -188 -1020 -413 -118 -88 -291 -254 -369 -354 l-48 -62 -977 -4
c-951 -3 -978 -4 -1061 -24 -135 -33 -256 -84 -348 -144 l-34 -22 5 319 c4
357 7 376 78 519 102 209 300 378 533 454 163 54 155 53 918 58 l717 5 3 346
c3 337 4 348 25 389 42 78 119 138 218 169 31 10 252 13 991 13 922 1 954 0
1015 -19z m-861 -1521 c-41 -22 -118 -69 -170 -104 -484 -323 -840 -815 -995
-1375 -59 -211 -77 -339 -82 -585 -6 -243 7 -390 52 -590 14 -60 23 -111 20
-113 -2 -2 -31 51 -63 119 -191 397 -240 821 -145 1249 150 678 676 1232 1342
1415 120 33 127 30 41 -16z m1440 -20 c478 -56 951 -295 1280 -647 297 -316
483 -692 555 -1122 22 -132 30 -401 16 -541 -53 -518 -268 -963 -642 -1324
-178 -172 -330 -278 -554 -386 -624 -302 -1384 -273 -1980 75 -572 335 -955
909 -1041 1560 -19 145 -18 425 1 568 50 359 191 701 414 998 76 102 257 287
361 370 451 359 1012 517 1590 449z"/>
<path d="M4047 6046 c-154 -56 -233 -217 -181 -369 21 -62 87 -135 149 -163
l50 -24 445 0 445 0 50 24 c104 48 166 145 166 260 0 110 -56 202 -155 254
l-51 27 -440 2 c-353 2 -448 0 -478 -11z"/>
<path d="M5656 4569 c-414 -44 -786 -216 -1083 -502 -173 -167 -283 -317 -383
-522 -324 -664 -220 -1443 269 -2012 254 -295 635 -513 1041 -595 156 -31 500
-33 655 -4 748 139 1325 701 1481 1440 32 150 44 439 24 593 -69 556 -397
1059 -882 1351 -331 199 -741 291 -1122 251z m474 -239 c578 -104 1060 -526
1244 -1091 56 -172 71 -278 71 -494 0 -175 -17 -356 -34 -355 -3 0 -33 42 -66
92 -71 108 -300 346 -415 430 -174 127 -360 221 -562 282 -194 58 -286 71
-533 71 -191 0 -235 -3 -335 -23 -485 -98 -917 -381 -1168 -764 -31 -48 -60
-87 -63 -87 -10 -1 -27 102 -39 224 -18 201 12 442 81 649 117 351 377 671
700 864 334 201 729 271 1119 202z"/>
</g>
</svg>
