<?xml version="1.0" standalone="no"?>
<!DOCTYPE svg PUBLIC "-//W3C//DTD SVG 20010904//EN"
 "http://www.w3.org/TR/2001/REC-SVG-20010904/DTD/svg10.dtd">
<svg version="1.0" xmlns="http://www.w3.org/2000/svg"
 width="360.000000pt" height="360.000000pt" viewBox="0 0 360.000000 360.000000"
 preserveAspectRatio="xMidYMid meet">
<metadata>
Created by potrace 1.16, written by Peter Selinger 2001-2019
</metadata>
<g transform="translate(0.000000,360.000000) scale(0.100000,-0.100000)"
fill="#000000" stroke="none">
<path d="M1469 3070 c-54 -10 -94 -40 -204 -151 -123 -125 -150 -138 -271
-139 l-91 0 -11 38 c-14 47 -56 87 -102 99 -41 11 -190 10 -237 -1 -38 -9 -88
-63 -98 -104 -6 -28 -9 -29 -74 -36 -118 -11 -189 -46 -245 -124 -63 -86 -61
-53 -61 -1007 0 -999 -5 -936 89 -1031 97 -96 -48 -88 1636 -88 1211 0 1482 2
1515 13 90 31 165 106 196 196 10 32 13 208 13 915 0 1004 5 942 -88 1035 -87
87 -90 88 -546 94 -344 5 -399 8 -425 23 -16 9 -77 64 -135 123 -156 158 -124
148 -505 150 -176 1 -336 -1 -356 -5z m756 -258 c115 -115 195 -166 272 -177
21 -3 203 -7 406 -9 346 -4 369 -6 400 -25 17 -11 40 -34 51 -51 18 -31 18
-70 18 -900 0 -829 -1 -869 -18 -900 -11 -17 -34 -41 -53 -52 l-33 -21 -1467
0 c-1426 0 -1469 0 -1500 19 -18 10 -42 34 -53 52 -20 33 -20 43 -20 902 0
829 1 869 18 900 38 64 61 70 265 71 101 0 283 4 404 8 217 7 221 7 280 36 41
21 98 66 180 145 l120 115 310 -2 310 -2 110 -109z"/>
<path d="M417 2465 c-38 -18 -48 -53 -45 -152 3 -81 6 -95 26 -115 22 -22 29
-23 202 -23 173 0 180 1 202 23 21 21 23 32 23 127 0 95 -2 106 -23 127 -22
22 -29 23 -193 24 -103 0 -179 -4 -192 -11z"/>
<path d="M1720 2470 c-185 -18 -338 -87 -477 -213 -175 -160 -264 -366 -264
-610 1 -380 252 -701 626 -797 102 -27 268 -29 373 -5 265 61 491 254 590 505
71 181 72 406 1 596 -58 156 -203 327 -348 412 -84 50 -221 98 -301 107 -107
11 -126 12 -200 5z m302 -184 c100 -35 173 -81 253 -161 80 -80 124 -151 163
-257 24 -66 27 -86 27 -213 0 -117 -4 -152 -22 -210 -32 -100 -87 -189 -168
-270 -80 -80 -151 -125 -257 -163 -66 -24 -86 -27 -218 -27 -133 0 -151 2
-218 27 -106 39 -177 83 -257 163 -80 80 -124 151 -163 257 -24 66 -27 86 -27
213 0 117 4 152 22 210 63 200 240 376 436 436 136 42 299 40 429 -5z"/>
<path d="M1745 2019 c-135 -18 -254 -117 -300 -249 -21 -59 -21 -178 0 -241
34 -102 134 -200 237 -235 63 -21 179 -21 238 0 106 38 198 131 235 236 21 58
21 182 0 240 -59 170 -230 274 -410 249z m143 -165 c84 -35 132 -109 132 -204
0 -130 -90 -220 -220 -220 -130 0 -220 90 -220 220 0 90 43 160 125 203 39 21
135 21 183 1z"/>
</g>
</svg>
